# xmcd
#
# Track frame offsets: 
#        150
#        46475
#        55832
#        75680
#        92787
#        103507
#        116747
#        128095
#        141992
#
# Disc length: 2244 seconds
#
# Revision: 5
# Processed by: cddbd v1.5.2PL0 Copyright (c) Steve Scherf et al.
# Submitted via: ExactAudioCopy v0.99pb5
#
DISCID=7908c209
DTITLE=B.B. King - Lucille (MFSL UDCD 659)
DYEAR=1968
DGENRE=Blues
TTITLE0=Lucille
TTITLE1=You Move Me So
TTITLE2=Country Girl
TTITLE3=No Money No Luck
TTITLE4=I Need Your Love
TTITLE5=Rainin' All The Time
TTITLE6=I'm With You
TTITLE7=Stop Putting The Hurt On Me
TTITLE8=Watch Yourself
EXTD=
EXTT0=
EXTT1=
EXTT2=
EXTT3=
EXTT4=
EXTT5=
EXTT6=
EXTT7=
EXTT8=
PLAYORDER=
